<svg width="24" height="24" viewBox="0 0 24 24" fill="none" xmlns="http://www.w3.org/2000/svg">
<rect width="24" height="24" fill="#007AD9"/>
<path d="M16.2507 9.38491C16.1416 8.85939 15.8539 8.37967 15.4293 8.01549C15.0047 7.65131 14.4654 7.42166 13.8897 7.35992L13.6685 7.33492C13.3067 7.29259 12.974 7.1301 12.7326 6.87781C12.4911 6.62552 12.3575 6.30071 12.3567 5.9641V5.25077C12.7459 5.10157 13.0675 4.83297 13.2671 4.49031C13.4667 4.14765 13.5322 3.75192 13.4523 3.36991C13.3725 2.9879 13.1523 2.64301 12.8289 2.39347C12.5056 2.14392 12.0988 2.00499 11.6773 2.00013C11.2558 1.99528 10.8455 2.12479 10.5154 2.36681C10.1854 2.60883 9.95597 2.94853 9.86583 3.32858C9.77569 3.70863 9.83037 4.10575 10.0207 4.4529C10.2109 4.80005 10.5252 5.07598 10.9103 5.2341V5.96243C10.9108 6.62457 11.1729 7.2638 11.6475 7.76025C12.122 8.25671 12.7764 8.57629 13.4879 8.65908L13.7091 8.68575C14.3989 8.76575 14.742 9.23575 14.8341 9.64825C14.9244 10.0607 14.807 10.6174 14.2039 10.9399C13.9123 11.0963 13.5872 11.1922 13.2514 11.2207L9.92887 11.5091C9.3848 11.5566 8.85821 11.7118 8.38498 11.9641C7.87999 12.2275 7.47919 12.6327 7.24083 13.1209C7.00247 13.609 6.93898 14.1545 7.05959 14.6782C7.16863 15.2037 7.45636 15.6835 7.88096 16.0476C8.30556 16.4118 8.8449 16.6415 9.42056 16.7032L9.64176 16.7299C10.0034 16.7722 10.336 16.9346 10.5774 17.1867C10.8188 17.4388 10.9526 17.7634 10.9536 18.0999V18.7474C10.5642 18.8975 10.2429 19.167 10.0438 19.5105C9.84481 19.8539 9.78028 20.2502 9.86115 20.6325C9.94202 21.0148 10.1633 21.3596 10.4877 21.6087C10.8121 21.8579 11.2197 21.996 11.6417 21.9999C12.0637 22.0038 12.4742 21.8732 12.8039 21.6301C13.1336 21.387 13.3623 21.0463 13.4514 20.6656C13.5406 20.2849 13.4846 19.8875 13.2931 19.5404C13.1015 19.1934 12.7861 18.918 12.4 18.7607V18.0999C12.3994 17.4376 12.1372 16.7983 11.6625 16.3018C11.1877 15.8053 10.5331 15.4858 9.82143 15.4032L9.60113 15.3766C8.91135 15.2966 8.56736 14.8266 8.47617 14.4141C8.38589 14.0016 8.50326 13.4449 9.10546 13.1224C9.39761 12.9657 9.72331 12.8699 10.0598 12.8416L13.3823 12.5541C13.9264 12.5066 14.453 12.3514 14.9262 12.0991C15.4307 11.8351 15.8311 11.4297 16.0692 10.9415C16.3074 10.4534 16.3709 9.90784 16.2507 9.38408V9.38491ZM13.8554 13.3082C13.7249 13.3296 13.5936 13.3462 13.4618 13.3582L12.0686 13.4807L13.8112 15.2466C14.3378 15.7796 14.6296 16.4751 14.6292 17.1965H16.0791C16.0797 16.142 15.653 15.1255 14.8829 14.3466L13.8554 13.3082ZM9.3384 10.7166C9.50115 10.6854 9.66576 10.6631 9.83136 10.6499L11.1197 10.5366L9.37 8.76658C8.84367 8.2334 8.55224 7.5379 8.55291 6.81659H7.10744C7.10744 7.87242 7.53178 8.88575 8.30282 9.66658L9.3384 10.7166Z" fill="white"/>
</svg>
