<svg width="24" height="24" viewBox="0 0 24 24" fill="none" xmlns="http://www.w3.org/2000/svg">
<g clip-path="url(#clip0_201_108)">
<path d="M12.1875 16.3125L5.76562 17.8594V6.14062L12.1875 7.64062V16.3125Z" fill="#E05243"/>
<path d="M12 16.3594L18.2344 17.8594V6.14062L12 7.64062V16.3594Z" fill="#8C3123"/>
<path d="M12 3V7.54688L14.7188 8.20312V4.35938L12 3ZM18.2344 6.14062V17.8594L19.4531 17.25V6.70312L18.2344 6.14062ZM12 9.75V14.2969L14.7188 13.9219V10.0781L12 9.75ZM14.7188 15.7969L12 16.4531V21L14.7188 19.6406V15.7969Z" fill="#E05243"/>
<path d="M12 21V16.4531L9.28125 15.7969V19.6406L12 21ZM5.76562 17.8594L5.76562 6.14062L4.54687 6.75L4.54687 17.2969L5.76562 17.8594ZM12 14.25L12 9.70312L9.28125 10.0781L9.28125 13.9219L12 14.25ZM9.28125 8.20312L12 7.54688V3L9.28125 4.35938V8.20312Z" fill="#8C3123"/>
<path d="M14.7188 8.20312L12 8.71875L9.28125 8.20312L12 7.5L14.7188 8.20312Z" fill="#5E1F18"/>
<path d="M14.7188 15.7969L12 15.2812L9.28125 15.7969L12 16.5469L14.7188 15.7969Z" fill="#F2B0A9"/>
</g>
<defs>
<clipPath id="clip0_201_108">
<rect width="24" height="24" fill="white"/>
</clipPath>
</defs>
</svg>
